<svg width="32" height="41" viewBox="0 0 32 41" fill="none" xmlns="http://www.w3.org/2000/svg">
<path fill-rule="evenodd" clip-rule="evenodd" d="M17.605 3.5H15.605C13.9481 3.5 12.605 4.84315 12.605 6.5V12.5H9.60498V6.5C9.60498 3.18629 12.2913 0.5 15.605 0.5H17.605C20.9187 0.5 23.605 3.18629 23.605 6.5V17.5H29.605V20.5H26.605H23.605H9.60498H6.60498H3.60498V17.5H9.60498H12.605H20.605V6.5C20.605 4.84315 19.2619 3.5 17.605 3.5ZM29.605 37.5H26.605H6.60498H3.60498V40.5H29.605V37.5ZM3.60498 26.5H6.60498V31.5H3.60498V26.5ZM0.60498 23.5H3.60498H6.60498H9.60498V26.5V31.5V34.5H6.60498H3.60498H0.60498V31.5V26.5V23.5ZM14.605 26.5H17.605V31.5H14.605V26.5ZM11.605 23.5H14.605H17.605H20.605V26.5V31.5V34.5H17.605H14.605H11.605V31.5V26.5V23.5ZM28.605 26.5H25.605V31.5H28.605V26.5ZM25.605 23.5H22.605V26.5V31.5V34.5H25.605H28.605H31.605V31.5V26.5V23.5H28.605H25.605Z" fill="#203354"/>
</svg>
