<svg width="46" height="27" viewBox="0 0 46 27" fill="none" xmlns="http://www.w3.org/2000/svg">
<path fill-rule="evenodd" clip-rule="evenodd" d="M42.4211 24V3H3.42114V24H42.4211ZM45.4211 3V24C45.4211 24.7957 45.1051 25.5587 44.5425 26.1213C43.9799 26.6839 43.2168 27 42.4211 27H3.42114C2.62549 27 1.86243 26.6839 1.29982 26.1213C0.737213 25.5587 0.421143 24.7957 0.421143 24V3C0.421143 2.20435 0.737213 1.44129 1.29982 0.87868C1.86243 0.31607 2.62549 0 3.42114 0H42.4211C43.2168 0 43.9799 0.31607 44.5425 0.87868C45.1051 1.44129 45.4211 2.20435 45.4211 3ZM6.42114 6.75C6.42114 6.55109 6.50016 6.36032 6.64081 6.21967C6.78147 6.07902 6.97223 6 7.17114 6H17.6711C17.8701 6 18.0608 6.07902 18.2015 6.21967C18.3421 6.36032 18.4211 6.55109 18.4211 6.75V20.25C18.4211 20.4489 18.3421 20.6397 18.2015 20.7803C18.0608 20.921 17.8701 21 17.6711 21H7.17114C6.97223 21 6.78147 20.921 6.64081 20.7803C6.50016 20.6397 6.42114 20.4489 6.42114 20.25V6.75ZM22.9211 12C22.5233 12 22.1418 12.158 21.8605 12.4393C21.5792 12.7206 21.4211 13.1022 21.4211 13.5C21.4211 13.8978 21.5792 14.2794 21.8605 14.5607C22.1418 14.842 22.5233 15 22.9211 15H31.9211C32.319 15 32.7005 14.842 32.9818 14.5607C33.2631 14.2794 33.4211 13.8978 33.4211 13.5C33.4211 13.1022 33.2631 12.7206 32.9818 12.4393C32.7005 12.158 32.319 12 31.9211 12H22.9211ZM21.4211 19.5C21.4211 19.1022 21.5792 18.7206 21.8605 18.4393C22.1418 18.158 22.5233 18 22.9211 18H37.9211C38.319 18 38.7005 18.158 38.9818 18.4393C39.2631 18.7206 39.4211 19.1022 39.4211 19.5C39.4211 19.8978 39.2631 20.2794 38.9818 20.5607C38.7005 20.842 38.319 21 37.9211 21H22.9211C22.5233 21 22.1418 20.842 21.8605 20.5607C21.5792 20.2794 21.4211 19.8978 21.4211 19.5ZM22.9211 6C22.5233 6 22.1418 6.15804 21.8605 6.43934C21.5792 6.72065 21.4211 7.10218 21.4211 7.5C21.4211 7.89783 21.5792 8.27936 21.8605 8.56066C22.1418 8.84196 22.5233 9 22.9211 9H34.9211C35.319 9 35.7005 8.84196 35.9818 8.56066C36.2631 8.27936 36.4211 7.89783 36.4211 7.5C36.4211 7.10218 36.2631 6.72065 35.9818 6.43934C35.7005 6.15804 35.319 6 34.9211 6H22.9211Z" fill="#203354"/>
</svg>
