<svg width="45" height="35" viewBox="0 0 45 35" fill="none" xmlns="http://www.w3.org/2000/svg">
<path d="M16.2007 17.5C21.0337 17.5 24.9507 13.583 24.9507 8.75C24.9507 3.91699 21.0337 0 16.2007 0C11.3677 0 7.45068 3.91699 7.45068 8.75C7.45068 13.583 11.3677 17.5 16.2007 17.5ZM22.3257 19.6875H21.1841C19.6665 20.3848 17.978 20.7812 16.2007 20.7812C14.4233 20.7812 12.7417 20.3848 11.2173 19.6875H10.0757C5.00342 19.6875 0.888184 23.8027 0.888184 28.875V31.7188C0.888184 33.5303 2.35791 35 4.16943 35H28.2319C30.0435 35 31.5132 33.5303 31.5132 31.7188V28.875C31.5132 23.8027 27.3979 19.6875 22.3257 19.6875ZM44.4058 10.9102L42.5054 8.98926C42.1909 8.66797 41.6782 8.66797 41.3569 8.98242L34.1929 16.0918L31.0825 12.9609C30.7681 12.6396 30.2554 12.6396 29.9341 12.9541L28.0132 14.8613C27.6919 15.1758 27.6919 15.6885 28.0063 16.0098L33.5913 21.6357C33.9058 21.957 34.4185 21.957 34.7397 21.6426L44.3989 12.0586C44.7134 11.7373 44.7202 11.2246 44.4058 10.9102Z" fill="#203354"/>
</svg>
